<svg version="1.1" id="Layer_1" xmlns="http://www.w3.org/2000/svg" xmlns:xlink="http://www.w3.org/1999/xlink" x="0px" y="0px"
	 width="100%" viewBox="0 0 500 500" enable-background="new 0 0 500 500" xml:space="preserve">
<path fill="#FFFFFF" opacity="1.000000" stroke="none" 
	d="
M468.000000,501.000000 
	C312.000031,501.000000 156.500076,501.000000 1.000083,501.000000 
	C1.000056,334.333405 1.000056,167.666824 1.000028,1.000173 
	C167.666550,1.000115 334.333099,1.000115 500.999756,1.000058 
	C500.999817,167.666519 500.999817,334.333038 500.999908,500.999756 
	C490.166656,501.000000 479.333344,501.000000 468.000000,501.000000 
M365.955536,280.494110 
	C365.812134,280.153229 365.668732,279.812317 365.525360,279.471436 
	C365.335693,279.609344 365.146057,279.747253 364.224945,279.947876 
	C361.612762,280.988342 359.065643,282.256714 356.375610,283.024261 
	C349.764771,284.910461 343.209656,284.805725 338.472565,279.142548 
	C333.515320,273.216156 333.748016,266.116455 336.356567,259.276733 
	C338.405426,253.904510 342.977661,251.454224 348.618225,251.480179 
	C353.407288,251.502197 358.132629,253.158875 359.402557,257.995453 
	C360.822083,263.401550 363.879547,263.023895 367.761597,262.415436 
	C368.229156,253.177536 362.117126,246.160370 352.783997,244.951324 
	C338.518677,243.103333 329.993469,249.854675 326.558960,265.719604 
	C320.794159,249.136398 313.099213,243.258469 299.391571,244.967300 
	C288.874786,246.278351 281.215515,255.074661 280.424835,266.749756 
	C279.691345,277.580170 286.473938,287.600891 296.931549,289.892426 
	C301.151611,290.817139 306.092102,290.978271 310.099182,289.654236 
	C314.264343,288.277954 318.348938,285.252411 321.259521,281.898651 
	C323.922607,278.830078 324.970703,274.359894 326.730438,270.507355 
	C328.635071,282.198853 333.597137,288.745392 343.463531,290.001282 
	C349.183075,290.729340 355.236450,289.438843 361.059692,288.539429 
	C365.041626,287.924377 366.914825,285.198456 365.955536,280.494110 
M441.195404,250.329590 
	C436.361969,245.361435 430.267303,244.420456 423.731964,244.820831 
	C411.116943,245.593613 403.771820,253.689102 403.364471,267.306885 
	C402.970490,280.479431 410.418396,289.895294 422.770844,290.648590 
	C427.755890,290.952545 432.933533,289.616760 437.889526,288.455383 
	C442.939362,287.271973 445.380402,283.983063 443.556458,278.440704 
	C441.234406,279.636108 438.972321,281.037628 436.538483,282.008575 
	C429.585693,284.782166 422.499420,285.518768 416.101990,280.917358 
	C414.266479,279.597137 412.538086,276.376526 412.840302,274.335175 
	C413.134033,272.350891 415.872742,269.645721 417.931946,269.235565 
	C421.974213,268.430328 426.290070,268.998718 430.654053,268.998718 
	C430.654053,267.471863 430.654053,265.401978 430.654053,263.414642 
	C423.006104,260.656860 416.500061,261.672485 411.130829,268.419647 
	C411.099854,258.587189 415.041840,253.035797 422.330994,251.916199 
	C431.811554,250.459976 436.582855,253.682327 439.418335,263.495361 
	C441.509369,263.495361 443.611938,263.495361 447.261658,263.495361 
	C445.180878,258.772308 443.437622,254.815399 441.195404,250.329590 
M401.805267,276.692535 
	C401.072205,273.343811 401.376465,268.980316 399.344025,266.902740 
	C396.791992,264.294098 392.325623,263.558197 388.553864,261.958313 
	C392.694550,256.993469 397.204773,251.585556 401.913635,245.939468 
	C396.485718,244.492371 392.937988,245.708984 389.978485,250.014145 
	C386.572357,254.969009 382.463135,259.440521 377.702789,265.299133 
	C377.702789,252.216248 377.702789,240.678955 377.702789,229.124008 
	C374.923523,229.124008 372.657227,229.124008 370.354462,229.124008 
	C370.354462,249.536667 370.354462,269.727539 370.354462,289.723206 
	C372.956604,289.723206 375.215881,289.723206 377.972290,289.723206 
	C377.972290,282.381683 377.972290,275.328827 377.972290,268.077087 
	C381.288788,268.077087 384.099701,268.048767 386.909882,268.082977 
	C392.743164,268.154053 393.944427,269.309540 394.011078,275.066437 
	C394.068237,280.000000 394.022888,284.934723 394.022888,289.768616 
	C396.897369,289.768616 399.161407,289.768616 401.805878,289.768616 
	C401.805878,285.562714 401.805878,281.600952 401.805267,276.692535 
M140.374619,282.133545 
	C149.735870,290.793701 160.691559,292.389557 172.741516,289.750580 
	C172.741516,287.148224 172.741516,284.874359 172.741516,282.579987 
	C151.590881,284.844971 140.722610,277.500488 140.133392,260.588135 
	C139.888260,253.552383 141.417542,246.944855 146.591125,241.812836 
	C153.998413,234.465057 163.277832,234.995667 172.774506,236.518631 
	C172.774506,233.826752 172.774506,231.553391 172.774506,229.113266 
	C162.316193,226.923691 152.391739,227.436646 143.687576,233.989304 
	C129.362762,244.773315 127.726730,266.823212 140.374619,282.133545 
M207.571442,290.006622 
	C210.621780,290.464203 210.104233,288.308777 210.109497,286.538910 
	C210.132294,278.877930 209.888123,271.204285 210.251724,263.559540 
	C210.606110,256.108612 216.017563,251.052277 222.691238,251.209793 
	C228.702682,251.351685 231.468979,255.208282 231.613586,263.736389 
	C231.667236,266.900024 231.623795,270.065308 231.623962,273.229858 
	C231.624252,278.705109 231.624023,284.180359 231.624023,289.797668 
	C234.243683,289.797668 236.493011,289.797668 239.053680,289.797668 
	C239.053680,279.136841 239.238113,268.677490 239.000168,258.227753 
	C238.776230,248.393158 231.841888,242.581131 222.329895,245.041061 
	C217.809387,246.210114 213.937698,249.887955 209.916779,252.341034 
	C209.916779,250.727509 209.916779,248.282074 209.916779,245.753571 
	C207.408035,245.753571 205.186111,245.753571 202.900818,245.753571 
	C202.900818,260.646179 202.900818,275.213318 202.900818,290.006989 
	C204.331985,290.006989 205.488770,290.006989 207.571442,290.006622 
M58.174801,288.553925 
	C58.110409,292.252014 57.462685,295.963684 63.376801,295.848206 
	C71.765854,295.684418 71.771378,295.967987 72.242043,288.841888 
	C72.664856,282.440430 76.454674,278.926575 83.477318,279.067261 
	C87.499962,279.147827 89.133362,277.945526 89.068901,273.690491 
	C88.950768,265.892242 92.212639,262.899353 99.760071,262.511566 
	C101.610321,262.416473 104.867851,261.313904 104.962067,260.411743 
	C105.346001,256.735229 106.052620,251.867142 104.114677,249.555786 
	C102.525169,247.659988 97.292664,248.297607 93.823357,248.812347 
	C92.764717,248.969406 91.660461,252.400040 91.502678,254.404343 
	C90.935051,261.614807 87.734695,265.140381 80.622154,264.890869 
	C76.276733,264.738373 74.760361,266.120819 74.875832,270.547546 
	C75.063698,277.750000 71.397400,281.535004 64.389183,281.406067 
	C59.700100,281.319794 57.384308,282.733643 58.174801,288.553925 
M75.087433,248.692276 
	C78.165871,247.797104 81.299400,247.051651 84.300919,245.947372 
	C85.951561,245.340103 88.350380,244.430115 88.750656,243.140839 
	C91.291977,234.955261 88.868721,231.913757 80.410782,231.983017 
	C80.077919,231.985748 79.741905,232.013947 79.412628,231.979691 
	C76.279716,231.653809 74.988022,232.859802 74.908112,236.199249 
	C74.685379,245.507462 72.175827,248.014572 63.048431,248.280594 
	C59.810631,248.374954 58.231133,249.308395 58.114365,252.875397 
	C57.798443,262.526154 55.719532,264.338470 45.894829,265.087463 
	C44.467010,265.196289 42.252434,266.442230 41.917553,267.600281 
	C39.450848,276.130280 41.814396,279.116089 50.457710,278.986298 
	C50.790524,278.981293 51.126171,278.956940 51.455925,278.988892 
	C54.492508,279.283051 55.497608,277.730011 55.706944,274.876770 
	C56.457512,264.646423 58.033234,263.027313 67.810295,262.648804 
	C70.930214,262.528046 72.143074,261.480408 72.347336,258.233856 
	C72.537796,255.206604 73.737419,252.242874 75.087433,248.692276 
M266.860504,233.665741 
	C266.860504,232.213821 266.860504,230.761917 266.860504,229.185760 
	C263.988708,229.185760 261.601379,229.185760 259.156281,229.185760 
	C259.156281,249.516388 259.156281,269.578949 259.156281,289.762329 
	C267.108978,289.762329 274.841919,289.762329 282.664917,289.762329 
	C282.664917,287.446472 282.664917,285.383850 282.664917,282.899963 
	C277.349976,282.899963 272.262451,282.899963 266.860504,282.899963 
	C266.860504,266.528503 266.860504,250.582748 266.860504,233.665741 
M182.791626,265.500061 
	C182.791626,253.391769 182.791626,241.283463 182.791626,229.111145 
	C179.943436,229.111145 177.676208,229.111145 175.362762,229.111145 
	C175.362762,249.521347 175.362762,269.721405 175.362762,289.715576 
	C177.977524,289.715576 180.240402,289.715576 182.791626,289.715576 
	C182.791626,281.773590 182.791626,274.136810 182.791626,265.500061 
M458.904785,250.592896 
	C458.144196,251.771744 457.383606,252.950607 456.039764,255.033432 
	C455.854858,251.294601 455.721954,248.608170 455.580811,245.753998 
	C452.941620,245.753998 450.569916,245.753998 448.016693,245.753998 
	C448.016693,253.414703 448.016663,260.720184 448.016663,268.025665 
	C448.016663,275.283691 448.016693,282.541718 448.016693,289.807678 
	C450.817474,289.807678 453.078949,289.807678 455.792999,289.807678 
	C455.792999,283.159424 455.720154,276.719208 455.809113,270.281189 
	C455.963959,259.076599 459.164642,255.079941 469.796814,252.597824 
	C469.796814,250.147614 469.796814,247.690460 469.796814,243.433487 
	C465.697998,245.994705 462.517120,247.982346 458.904785,250.592896 
M252.106888,264.500610 
	C252.106888,258.250671 252.106888,252.000702 252.106888,245.814560 
	C249.277618,245.814560 247.076508,245.814560 244.925842,245.814560 
	C244.925842,260.726898 244.925842,275.257050 244.925842,289.691803 
	C247.469482,289.691803 249.698654,289.691803 252.106888,289.691803 
	C252.106888,281.420135 252.106888,273.460205 252.106888,264.500610 
M195.761581,245.721497 
	C193.531113,245.721497 191.300659,245.721497 189.202423,245.721497 
	C189.202423,260.743835 189.202423,275.311523 189.202423,289.870087 
	C191.654190,289.870087 193.795715,289.870087 196.267059,289.870087 
	C196.267059,275.297272 196.267059,260.855408 195.761581,245.721497 
M55.492989,253.557175 
	C54.613323,251.846100 53.848820,248.758682 52.833099,248.673691 
	C49.336060,248.381104 43.785942,247.930466 42.653713,249.773514 
	C40.890877,252.643127 41.409817,257.553406 42.494659,261.134460 
	C42.809921,262.175140 48.800049,262.634491 51.359581,261.496033 
	C53.392746,260.591705 54.161316,256.844269 55.492989,253.557175 
M87.578766,282.071167 
	C85.941948,281.886841 84.295280,281.484283 82.670082,281.557617 
	C76.907448,281.817749 74.909195,284.690491 74.918922,291.320740 
	C74.927765,297.351654 79.248238,295.385498 82.356346,295.724121 
	C83.504517,295.849182 84.842926,296.064423 85.802971,295.615234 
	C87.003067,295.053772 88.742867,293.881775 88.779892,292.916931 
	C88.910286,289.519806 88.411545,286.098572 87.578766,282.071167 
M66.729523,245.690140 
	C71.702339,243.280884 73.670052,239.499527 72.103630,234.432114 
	C70.715446,229.941284 66.773384,232.429962 64.001320,232.112000 
	C62.281601,231.914734 58.984779,232.751068 58.863014,233.516159 
	C58.304012,237.028305 58.004925,240.851517 58.949162,244.184418 
	C59.271942,245.323715 63.496986,245.357483 66.729523,245.690140 
M105.379822,275.012543 
	C105.379875,273.030365 105.583527,271.019531 105.309578,269.075958 
	C105.121834,267.744049 104.196640,265.376617 103.725929,265.406982 
	C100.405945,265.621155 96.135086,265.285461 94.098694,267.189941 
	C92.088142,269.070251 91.455719,273.486511 91.834129,276.593506 
	C92.321609,280.596008 96.350716,278.813446 98.855728,278.872528 
	C101.300911,278.930176 104.887207,280.455933 105.379822,275.012543 
M88.983765,252.671341 
	C88.041046,248.387177 85.155846,247.125946 79.998650,248.757477 
	C75.746704,250.102631 74.497261,253.377335 75.070175,257.322418 
	C75.332047,259.125671 76.366661,261.993164 77.544464,262.268829 
	C81.245377,263.135040 85.371841,263.170044 87.640976,259.157776 
	C88.556961,257.538147 88.563408,255.404114 88.983765,252.671341 
M58.216583,271.096771 
	C58.813934,273.661255 58.813019,277.967926 60.135128,278.421906 
	C62.760979,279.323639 66.416077,278.781891 69.097351,277.596252 
	C72.904900,275.912567 72.404716,271.811340 72.067726,268.375336 
	C71.953133,267.206909 70.843918,265.544952 69.801376,265.160645 
	C65.211433,263.468842 60.864471,265.575592 58.216583,271.096771 
M197.234116,232.781601 
	C196.557861,229.489456 194.120514,228.127014 191.423660,229.297684 
	C189.839783,229.985229 188.237091,232.687973 188.292618,234.431732 
	C188.335770,235.786682 190.779327,237.890625 192.424576,238.191162 
	C195.511810,238.755096 197.252136,236.688309 197.234116,232.781601 
M249.197723,238.263290 
	C252.476425,237.642090 253.896851,235.262619 252.780609,232.537735 
	C252.127518,230.943451 249.507172,229.280029 247.776642,229.285110 
	C246.445297,229.289017 244.327972,231.671539 243.965012,233.307922 
	C243.280991,236.391815 245.304672,238.147964 249.197723,238.263290 
z"/>
<path fill="#090909" opacity="1.000000" stroke="none" 
	d="
M365.801880,280.987183 
	C366.914825,285.198456 365.041626,287.924377 361.059692,288.539429 
	C355.236450,289.438843 349.183075,290.729340 343.463531,290.001282 
	C333.597137,288.745392 328.635071,282.198853 326.730438,270.507355 
	C324.970703,274.359894 323.922607,278.830078 321.259521,281.898651 
	C318.348938,285.252411 314.264343,288.277954 310.099182,289.654236 
	C306.092102,290.978271 301.151611,290.817139 296.931549,289.892426 
	C286.473938,287.600891 279.691345,277.580170 280.424835,266.749756 
	C281.215515,255.074661 288.874786,246.278351 299.391571,244.967300 
	C313.099213,243.258469 320.794159,249.136398 326.558960,265.719604 
	C329.993469,249.854675 338.518677,243.103333 352.783997,244.951324 
	C362.117126,246.160370 368.229156,253.177536 367.761597,262.415436 
	C363.879547,263.023895 360.822083,263.401550 359.402557,257.995453 
	C358.132629,253.158875 353.407288,251.502197 348.618225,251.480179 
	C342.977661,251.454224 338.405426,253.904510 336.356567,259.276733 
	C333.748016,266.116455 333.515320,273.216156 338.472565,279.142548 
	C343.209656,284.805725 349.764771,284.910461 356.375610,283.024261 
	C359.065643,282.256714 361.612762,280.988342 364.675812,280.139191 
	C365.284302,280.618744 365.509369,280.837616 365.801880,280.987183 
M314.548187,278.901886 
	C315.354675,277.455780 316.353638,276.082947 316.936493,274.551697 
	C320.771027,264.477905 315.636414,253.549698 306.380585,251.924622 
	C298.720642,250.579742 292.522919,253.785980 289.710785,260.548462 
	C286.565155,268.112732 288.627533,277.085541 294.493683,281.357819 
	C300.339355,285.615265 307.886780,284.884888 314.548187,278.901886 
z"/>
<path fill="#0A0A0A" opacity="1.000000" stroke="none" 
	d="
M441.444885,250.594040 
	C443.437622,254.815399 445.180878,258.772308 447.261658,263.495361 
	C443.611938,263.495361 441.509369,263.495361 439.418335,263.495361 
	C436.582855,253.682327 431.811554,250.459976 422.330994,251.916199 
	C415.041840,253.035797 411.099854,258.587189 411.130829,268.419647 
	C416.500061,261.672485 423.006104,260.656860 430.654053,263.414642 
	C430.654053,265.401978 430.654053,267.471863 430.654053,268.998718 
	C426.290070,268.998718 421.974213,268.430328 417.931946,269.235565 
	C415.872742,269.645721 413.134033,272.350891 412.840302,274.335175 
	C412.538086,276.376526 414.266479,279.597137 416.101990,280.917358 
	C422.499420,285.518768 429.585693,284.782166 436.538483,282.008575 
	C438.972321,281.037628 441.234406,279.636108 443.556458,278.440704 
	C445.380402,283.983063 442.939362,287.271973 437.889526,288.455383 
	C432.933533,289.616760 427.755890,290.952545 422.770844,290.648590 
	C410.418396,289.895294 402.970490,280.479431 403.364471,267.306885 
	C403.771820,253.689102 411.116943,245.593613 423.731964,244.820831 
	C430.267303,244.420456 436.361969,245.361435 441.444885,250.594040 
z"/>
<path fill="#0C0C0C" opacity="1.000000" stroke="none" 
	d="
M401.805573,277.165863 
	C401.805878,281.600952 401.805878,285.562714 401.805878,289.768616 
	C399.161407,289.768616 396.897369,289.768616 394.022888,289.768616 
	C394.022888,284.934723 394.068237,280.000000 394.011078,275.066437 
	C393.944427,269.309540 392.743164,268.154053 386.909882,268.082977 
	C384.099701,268.048767 381.288788,268.077087 377.972290,268.077087 
	C377.972290,275.328827 377.972290,282.381683 377.972290,289.723206 
	C375.215881,289.723206 372.956604,289.723206 370.354462,289.723206 
	C370.354462,269.727539 370.354462,249.536667 370.354462,229.124008 
	C372.657227,229.124008 374.923523,229.124008 377.702789,229.124008 
	C377.702789,240.678955 377.702789,252.216248 377.702789,265.299133 
	C382.463135,259.440521 386.572357,254.969009 389.978485,250.014145 
	C392.937988,245.708984 396.485718,244.492371 401.913635,245.939468 
	C397.204773,251.585556 392.694550,256.993469 388.553864,261.958313 
	C392.325623,263.558197 396.791992,264.294098 399.344025,266.902740 
	C401.376465,268.980316 401.072205,273.343811 401.805573,277.165863 
z"/>
<path fill="#090909" opacity="1.000000" stroke="none" 
	d="
M140.145828,281.859619 
	C127.726730,266.823212 129.362762,244.773315 143.687576,233.989304 
	C152.391739,227.436646 162.316193,226.923691 172.774506,229.113266 
	C172.774506,231.553391 172.774506,233.826752 172.774506,236.518631 
	C163.277832,234.995667 153.998413,234.465057 146.591125,241.812836 
	C141.417542,246.944855 139.888260,253.552383 140.133392,260.588135 
	C140.722610,277.500488 151.590881,284.844971 172.741516,282.579987 
	C172.741516,284.874359 172.741516,287.148224 172.741516,289.750580 
	C160.691559,292.389557 149.735870,290.793701 140.145828,281.859619 
z"/>
<path fill="#040404" opacity="1.000000" stroke="none" 
	d="
M207.108505,290.006805 
	C205.488770,290.006989 204.331985,290.006989 202.900818,290.006989 
	C202.900818,275.213318 202.900818,260.646179 202.900818,245.753571 
	C205.186111,245.753571 207.408035,245.753571 209.916779,245.753571 
	C209.916779,248.282074 209.916779,250.727509 209.916779,252.341034 
	C213.937698,249.887955 217.809387,246.210114 222.329895,245.041061 
	C231.841888,242.581131 238.776230,248.393158 239.000168,258.227753 
	C239.238113,268.677490 239.053680,279.136841 239.053680,289.797668 
	C236.493011,289.797668 234.243683,289.797668 231.624023,289.797668 
	C231.624023,284.180359 231.624252,278.705109 231.623962,273.229858 
	C231.623795,270.065308 231.667236,266.900024 231.613586,263.736389 
	C231.468979,255.208282 228.702682,251.351685 222.691238,251.209793 
	C216.017563,251.052277 210.606110,256.108612 210.251724,263.559540 
	C209.888123,271.204285 210.132294,278.877930 210.109497,286.538910 
	C210.104233,288.308777 210.621780,290.464203 207.108505,290.006805 
z"/>
<path fill="#0B0B0B" opacity="1.000000" stroke="none" 
	d="
M58.174873,288.112488 
	C57.384308,282.733643 59.700100,281.319794 64.389183,281.406067 
	C71.397400,281.535004 75.063698,277.750000 74.875832,270.547546 
	C74.760361,266.120819 76.276733,264.738373 80.622154,264.890869 
	C87.734695,265.140381 90.935051,261.614807 91.502678,254.404343 
	C91.660461,252.400040 92.764717,248.969406 93.823357,248.812347 
	C97.292664,248.297607 102.525169,247.659988 104.114677,249.555786 
	C106.052620,251.867142 105.346001,256.735229 104.962067,260.411743 
	C104.867851,261.313904 101.610321,262.416473 99.760071,262.511566 
	C92.212639,262.899353 88.950768,265.892242 89.068901,273.690491 
	C89.133362,277.945526 87.499962,279.147827 83.477318,279.067261 
	C76.454674,278.926575 72.664856,282.440430 72.242043,288.841888 
	C71.771378,295.967987 71.765854,295.684418 63.376801,295.848206 
	C57.462685,295.963684 58.110409,292.252014 58.174873,288.112488 
z"/>
<path fill="#090909" opacity="1.000000" stroke="none" 
	d="
M74.790123,248.971725 
	C73.737419,252.242874 72.537796,255.206604 72.347336,258.233856 
	C72.143074,261.480408 70.930214,262.528046 67.810295,262.648804 
	C58.033234,263.027313 56.457512,264.646423 55.706944,274.876770 
	C55.497608,277.730011 54.492508,279.283051 51.455925,278.988892 
	C51.126171,278.956940 50.790524,278.981293 50.457710,278.986298 
	C41.814396,279.116089 39.450848,276.130280 41.917553,267.600281 
	C42.252434,266.442230 44.467010,265.196289 45.894829,265.087463 
	C55.719532,264.338470 57.798443,262.526154 58.114365,252.875397 
	C58.231133,249.308395 59.810631,248.374954 63.048431,248.280594 
	C72.175827,248.014572 74.685379,245.507462 74.908112,236.199249 
	C74.988022,232.859802 76.279716,231.653809 79.412628,231.979691 
	C79.741905,232.013947 80.077919,231.985748 80.410782,231.983017 
	C88.868721,231.913757 91.291977,234.955261 88.750656,243.140839 
	C88.350380,244.430115 85.951561,245.340103 84.300919,245.947372 
	C81.299400,247.051651 78.165871,247.797104 74.790123,248.971725 
z"/>
<path fill="#060606" opacity="1.000000" stroke="none" 
	d="
M266.860504,234.151367 
	C266.860504,250.582748 266.860504,266.528503 266.860504,282.899963 
	C272.262451,282.899963 277.349976,282.899963 282.664917,282.899963 
	C282.664917,285.383850 282.664917,287.446472 282.664917,289.762329 
	C274.841919,289.762329 267.108978,289.762329 259.156281,289.762329 
	C259.156281,269.578949 259.156281,249.516388 259.156281,229.185760 
	C261.601379,229.185760 263.988708,229.185760 266.860504,229.185760 
	C266.860504,230.761917 266.860504,232.213821 266.860504,234.151367 
z"/>
<path fill="#0D0D0D" opacity="1.000000" stroke="none" 
	d="
M182.791626,266.000061 
	C182.791626,274.136810 182.791626,281.773590 182.791626,289.715576 
	C180.240402,289.715576 177.977524,289.715576 175.362762,289.715576 
	C175.362762,269.721405 175.362762,249.521347 175.362762,229.111145 
	C177.676208,229.111145 179.943436,229.111145 182.791626,229.111145 
	C182.791626,241.283463 182.791626,253.391769 182.791626,266.000061 
z"/>
<path fill="#0C0C0C" opacity="1.000000" stroke="none" 
	d="
M459.120514,250.281433 
	C462.517120,247.982346 465.697998,245.994705 469.796814,243.433487 
	C469.796814,247.690460 469.796814,250.147614 469.796814,252.597824 
	C459.164642,255.079941 455.963959,259.076599 455.809113,270.281189 
	C455.720154,276.719208 455.792999,283.159424 455.792999,289.807678 
	C453.078949,289.807678 450.817474,289.807678 448.016693,289.807678 
	C448.016693,282.541718 448.016663,275.283691 448.016663,268.025665 
	C448.016663,260.720184 448.016693,253.414703 448.016693,245.753998 
	C450.569916,245.753998 452.941620,245.753998 455.580811,245.753998 
	C455.721954,248.608170 455.854858,251.294601 456.039764,255.033432 
	C457.383606,252.950607 458.144196,251.771744 459.120514,250.281433 
z"/>
<path fill="#030303" opacity="1.000000" stroke="none" 
	d="
M252.106888,265.000427 
	C252.106888,273.460205 252.106888,281.420135 252.106888,289.691803 
	C249.698654,289.691803 247.469482,289.691803 244.925842,289.691803 
	C244.925842,275.257050 244.925842,260.726898 244.925842,245.814560 
	C247.076508,245.814560 249.277618,245.814560 252.106888,245.814560 
	C252.106888,252.000702 252.106888,258.250671 252.106888,265.000427 
z"/>
<path fill="#030303" opacity="1.000000" stroke="none" 
	d="
M196.014313,246.067505 
	C196.267059,260.855408 196.267059,275.297272 196.267059,289.870087 
	C193.795715,289.870087 191.654190,289.870087 189.202423,289.870087 
	C189.202423,275.311523 189.202423,260.743835 189.202423,245.721497 
	C191.300659,245.721497 193.531113,245.721497 196.014313,246.067505 
z"/>
<path fill="#0B0B0B" opacity="1.000000" stroke="none" 
	d="
M55.492165,253.958130 
	C54.161316,256.844269 53.392746,260.591705 51.359581,261.496033 
	C48.800049,262.634491 42.809921,262.175140 42.494659,261.134460 
	C41.409817,257.553406 40.890877,252.643127 42.653713,249.773514 
	C43.785942,247.930466 49.336060,248.381104 52.833099,248.673691 
	C53.848820,248.758682 54.613323,251.846100 55.492165,253.958130 
z"/>
<path fill="#0A0A0A" opacity="1.000000" stroke="none" 
	d="
M87.865135,282.378815 
	C88.411545,286.098572 88.910286,289.519806 88.779892,292.916931 
	C88.742867,293.881775 87.003067,295.053772 85.802971,295.615234 
	C84.842926,296.064423 83.504517,295.849182 82.356346,295.724121 
	C79.248238,295.385498 74.927765,297.351654 74.918922,291.320740 
	C74.909195,284.690491 76.907448,281.817749 82.670082,281.557617 
	C84.295280,281.484283 85.941948,281.886841 87.865135,282.378815 
z"/>
<path fill="#090909" opacity="1.000000" stroke="none" 
	d="
M66.334320,245.793243 
	C63.496986,245.357483 59.271942,245.323715 58.949162,244.184418 
	C58.004925,240.851517 58.304012,237.028305 58.863014,233.516159 
	C58.984779,232.751068 62.281601,231.914734 64.001320,232.112000 
	C66.773384,232.429962 70.715446,229.941284 72.103630,234.432114 
	C73.670052,239.499527 71.702339,243.280884 66.334320,245.793243 
z"/>
<path fill="#060606" opacity="1.000000" stroke="none" 
	d="
M105.369995,275.441345 
	C104.887207,280.455933 101.300911,278.930176 98.855728,278.872528 
	C96.350716,278.813446 92.321609,280.596008 91.834129,276.593506 
	C91.455719,273.486511 92.088142,269.070251 94.098694,267.189941 
	C96.135086,265.285461 100.405945,265.621155 103.725929,265.406982 
	C104.196640,265.376617 105.121834,267.744049 105.309578,269.075958 
	C105.583527,271.019531 105.379875,273.030365 105.369995,275.441345 
z"/>
<path fill="#0D0D0D" opacity="1.000000" stroke="none" 
	d="
M88.983772,253.087769 
	C88.563408,255.404114 88.556961,257.538147 87.640976,259.157776 
	C85.371841,263.170044 81.245377,263.135040 77.544464,262.268829 
	C76.366661,261.993164 75.332047,259.125671 75.070175,257.322418 
	C74.497261,253.377335 75.746704,250.102631 79.998650,248.757477 
	C85.155846,247.125946 88.041046,248.387177 88.983772,253.087769 
z"/>
<path fill="#0B0B0B" opacity="1.000000" stroke="none" 
	d="
M58.304222,270.697601 
	C60.864471,265.575592 65.211433,263.468842 69.801376,265.160645 
	C70.843918,265.544952 71.953133,267.206909 72.067726,268.375336 
	C72.404716,271.811340 72.904900,275.912567 69.097351,277.596252 
	C66.416077,278.781891 62.760979,279.323639 60.135128,278.421906 
	C58.813019,277.967926 58.813934,273.661255 58.304222,270.697601 
z"/>
<path fill="#0A0A0A" opacity="1.000000" stroke="none" 
	d="
M197.296173,233.133209 
	C197.252136,236.688309 195.511810,238.755096 192.424576,238.191162 
	C190.779327,237.890625 188.335770,235.786682 188.292618,234.431732 
	C188.237091,232.687973 189.839783,229.985229 191.423660,229.297684 
	C194.120514,228.127014 196.557861,229.489456 197.296173,233.133209 
z"/>
<path fill="#060606" opacity="1.000000" stroke="none" 
	d="
M248.834976,238.320343 
	C245.304672,238.147964 243.280991,236.391815 243.965012,233.307922 
	C244.327972,231.671539 246.445297,229.289017 247.776642,229.285110 
	C249.507172,229.280029 252.127518,230.943451 252.780609,232.537735 
	C253.896851,235.262619 252.476425,237.642090 248.834976,238.320343 
z"/>
<path fill="#0A0A0A" opacity="1.000000" stroke="none" 
	d="
M365.878723,280.740662 
	C365.509369,280.837616 365.284302,280.618744 365.041565,280.107849 
	C365.146057,279.747253 365.335693,279.609344 365.525360,279.471436 
	C365.668732,279.812317 365.812134,280.153229 365.878723,280.740662 
z"/>
<path fill="#FBFBFB" opacity="1.000000" stroke="none" 
	d="
M314.295776,279.183929 
	C307.886780,284.884888 300.339355,285.615265 294.493683,281.357819 
	C288.627533,277.085541 286.565155,268.112732 289.710785,260.548462 
	C292.522919,253.785980 298.720642,250.579742 306.380585,251.924622 
	C315.636414,253.549698 320.771027,264.477905 316.936493,274.551697 
	C316.353638,276.082947 315.354675,277.455780 314.295776,279.183929 
z"/>
</svg>